<mxfile host="Electron" modified="2024-06-19T22:05:13.178Z" agent="Mozilla/5.0 (X11; Linux x86_64) AppleWebKit/537.36 (KHTML, like Gecko) draw.io/24.5.3 Chrome/124.0.6367.207 Electron/30.0.6 Safari/537.36" etag="iDhF57kJJCdVxMmvvRzD" version="24.5.3" type="device">
  <diagram name="Page-1" id="ItBnVDaaPkxJU1QReRKa">
    <mxGraphModel dx="1364" dy="963" grid="1" gridSize="3.937" guides="1" tooltips="1" connect="1" arrows="1" fold="1" page="1" pageScale="1" pageWidth="1100" pageHeight="1400" background="#FFFFFF" math="0" shadow="0">
      <root>
        <mxCell id="0" />
        <mxCell id="1" parent="0" />
        <mxCell id="vXAJsGSplwALr-w8OxCf-44" value="" style="rounded=0;whiteSpace=wrap;html=1;fillColor=#E6E6E6;strokeColor=none;fontStyle=1" parent="1" vertex="1">
          <mxGeometry x="649.6099999999999" y="268.7099999999999" width="346.46" height="519.69" as="geometry" />
        </mxCell>
        <mxCell id="vXAJsGSplwALr-w8OxCf-36" value="" style="rounded=0;whiteSpace=wrap;html=1;fillColor=#E6E6E6;strokeColor=none;fontStyle=1" parent="1" vertex="1">
          <mxGeometry x="318.90999999999997" y="268.7099999999999" width="141.73" height="177.17" as="geometry" />
        </mxCell>
        <mxCell id="vXAJsGSplwALr-w8OxCf-32" value="" style="rounded=0;whiteSpace=wrap;html=1;fillColor=#E6E6E6;strokeColor=none;fontStyle=1" parent="1" vertex="1">
          <mxGeometry x="129.92999999999995" y="788.4" width="519.69" height="520.37" as="geometry" />
        </mxCell>
        <mxCell id="vXAJsGSplwALr-w8OxCf-29" value="" style="rounded=0;whiteSpace=wrap;html=1;fillColor=#E6E6E6;strokeColor=none;fontStyle=1" parent="1" vertex="1">
          <mxGeometry x="129.92999999999995" y="130.92000000000002" width="519.68" height="137.79" as="geometry" />
        </mxCell>
        <mxCell id="vXAJsGSplwALr-w8OxCf-2" value="" style="endArrow=none;html=1;rounded=0;strokeWidth=5;fontStyle=1" parent="1" edge="1">
          <mxGeometry width="50" height="50" relative="1" as="geometry">
            <mxPoint x="129.92999999999995" y="788.63" as="sourcePoint" />
            <mxPoint x="649.93" y="789.4" as="targetPoint" />
          </mxGeometry>
        </mxCell>
        <mxCell id="vXAJsGSplwALr-w8OxCf-3" value="" style="endArrow=none;html=1;rounded=0;strokeWidth=5;fontStyle=1" parent="1" edge="1">
          <mxGeometry width="50" height="50" relative="1" as="geometry">
            <mxPoint x="129.92699999999996" y="962.3069999999999" as="sourcePoint" />
            <mxPoint x="649.927" y="963.0769999999999" as="targetPoint" />
          </mxGeometry>
        </mxCell>
        <mxCell id="vXAJsGSplwALr-w8OxCf-4" value="" style="endArrow=none;html=1;rounded=0;strokeWidth=5;fontStyle=1" parent="1" edge="1">
          <mxGeometry width="50" height="50" relative="1" as="geometry">
            <mxPoint x="129.93399999999997" y="1135.544" as="sourcePoint" />
            <mxPoint x="649.934" y="1136.314" as="targetPoint" />
          </mxGeometry>
        </mxCell>
        <mxCell id="vXAJsGSplwALr-w8OxCf-5" value="" style="endArrow=none;html=1;rounded=0;strokeWidth=5;fontStyle=1" parent="1" edge="1">
          <mxGeometry width="50" height="50" relative="1" as="geometry">
            <mxPoint x="129.93099999999998" y="1307.4010000000005" as="sourcePoint" />
            <mxPoint x="995.93" y="1308.4000000000003" as="targetPoint" />
          </mxGeometry>
        </mxCell>
        <mxCell id="vXAJsGSplwALr-w8OxCf-6" value="" style="endArrow=none;html=1;rounded=0;strokeWidth=5;exitX=0;exitY=1;exitDx=0;exitDy=0;fontStyle=1" parent="1" source="vXAJsGSplwALr-w8OxCf-32" edge="1">
          <mxGeometry width="50" height="50" relative="1" as="geometry">
            <mxPoint x="129.92999999999995" y="1169.9200000000003" as="sourcePoint" />
            <mxPoint x="129.92999999999995" y="130.92000000000002" as="targetPoint" />
          </mxGeometry>
        </mxCell>
        <mxCell id="vXAJsGSplwALr-w8OxCf-7" value="" style="endArrow=none;html=1;rounded=0;strokeWidth=5;fontStyle=1" parent="1" edge="1">
          <mxGeometry width="50" height="50" relative="1" as="geometry">
            <mxPoint x="303.1569999999999" y="1308.3970000000002" as="sourcePoint" />
            <mxPoint x="303.1569999999999" y="789.397" as="targetPoint" />
          </mxGeometry>
        </mxCell>
        <mxCell id="vXAJsGSplwALr-w8OxCf-8" value="" style="endArrow=none;html=1;rounded=0;strokeWidth=5;fontStyle=1" parent="1" edge="1">
          <mxGeometry width="50" height="50" relative="1" as="geometry">
            <mxPoint x="476.3839999999999" y="1308.4040000000002" as="sourcePoint" />
            <mxPoint x="476.3839999999999" y="789.4040000000001" as="targetPoint" />
          </mxGeometry>
        </mxCell>
        <mxCell id="vXAJsGSplwALr-w8OxCf-9" value="" style="endArrow=none;html=1;rounded=0;strokeWidth=5;fontStyle=1" parent="1" edge="1">
          <mxGeometry width="50" height="50" relative="1" as="geometry">
            <mxPoint x="649.6109999999999" y="1308.4010000000005" as="sourcePoint" />
            <mxPoint x="649.6109999999999" y="789.4010000000002" as="targetPoint" />
          </mxGeometry>
        </mxCell>
        <mxCell id="vXAJsGSplwALr-w8OxCf-11" value="" style="endArrow=none;html=1;rounded=0;strokeWidth=5;fontStyle=1" parent="1" edge="1">
          <mxGeometry width="50" height="50" relative="1" as="geometry">
            <mxPoint x="649.93" y="787.92" as="sourcePoint" />
            <mxPoint x="649.6049999999999" y="268.71500000000015" as="targetPoint" />
          </mxGeometry>
        </mxCell>
        <mxCell id="vXAJsGSplwALr-w8OxCf-12" value="" style="endArrow=none;html=1;rounded=0;strokeWidth=5;fontStyle=1" parent="1" edge="1">
          <mxGeometry width="50" height="50" relative="1" as="geometry">
            <mxPoint x="995.93" y="1307.9200000000003" as="sourcePoint" />
            <mxPoint x="995.9319999999999" y="131.9220000000002" as="targetPoint" />
          </mxGeometry>
        </mxCell>
        <mxCell id="vXAJsGSplwALr-w8OxCf-18" value="" style="shape=image;verticalLabelPosition=bottom;labelBackgroundColor=default;verticalAlign=top;aspect=fixed;imageAspect=0;image=data:image/jpeg,/9j/4AAQSkZJRgABAQEBNgE2AAD/2wBDAAEBAQEBAQEBAQEBAQEBAQEBAQEBAQEBAQEBAQEBAQEBAQEBAQICAQECAQEBAgICAgICAgICAQICAgICAgICAgL/2wBDAQEBAQEBAQEBAQECAQEBAgICAgICAgICAgICAgICAgICAgICAgICAgICAgICAgICAgICAgICAgICAgICAgICAgL/wgARCAErASsDAREAAhEBAxEB/8QAHgABAQADAAMBAQEAAAAAAAAAAAkBCAoEBgcFAgP/xAAcAQEAAgMBAQEAAAAAAAAAAAAABwgBAgMGBQT/2gAMAwEAAhADEAAAAdU7qU/AAAAAAAA6p6V2/wAsiM8/wZO+VYyAAAAAAAAAAAAAAAAHVPSu3+WRGef4MnfKsZAAAAAAAAAAAAAAAADqnpXb/LIjPP8ABk75VjIAAAAAAAAADfGNJE2m8X68AADVr2nkNDZLjsAdU9K7f5ZEZ5/gyd8qxkB9O+N9apMMy6AAB/LEap/g0AAACycAzjRWKZPAAAnVK0Yxsn6DQB1T0rt/lkRnn+DJ3yrGQGwflvS9EtVLNgAAf55xyt3TqAAAABtH4z133DznoBvdGsh7T+L9fqx7TyGiMlR4Ph/o/P6uez8iAOqeldv8siM8/wAGTvlWMgPdfnfv3ejr34+mfH+rUmGZd/yzrG+fYPGGJ2ytGQAAAAAsfAU40ZiiT5zSvGEcJ9g4AADqnpXb/LIjPP8ABk75VjIAAffvL+j6Kqp2d8fbTlfulUIAAAAAACx8BTjRmKJPnNK8YRwn2DgAAOqeldv8siM8/wAGTvlWMgAB9+8v6PoqqnZ3x9tOV+6VQgAAAAAALHwFONGYok+c0rxhHCfYOAAA6p6V2/yyIzz/AAZO+VYyAAH37y/o+iqqdnfH205X7pVCAAAAAAAsfAU40ZiiT5zSvGEcJ9g4AADqnpXb/LIjPP8ABk75VjIAAffvL+j6Kqp2d8fbTlfulUIAAAAAACx8BTjRmKJPnNK8YRwn2DgAAOqeldv8siM8/wAGTvlWMgAB9+8v6PoqqnZ3x9tOV+6VQgAAAAAALHwFONGYok+c0rxhHCfYOAAA6p6V2/yyIzz/AAZO+VYyAAH37y/o+iqqdnfH205X7pVCAAAAAAAsfAU40ZiiT5zSvGEcJ9g4AADqnpXb/LIjPP8ABk75VjIAAffvL+j6Kqp2d8fbTlfulUIAAAAAADe+NJE2p8V6/Vf2vkND5LjsAADqnpXb/LIjPP8ABk75VjIAAfTPj/VqZC8vf5bYjZP0GgAAAAAAAAAAAdU9K7f5ZEZ5/gyd8qxkAAAAAAAAAAAAAAAAOqeldv8ALIjPP8GTvlWMgAAAAAAAAAAAAAAAB1T0rt/lkRnn+DJ3yrGQAAAAAAAHVPSu4AAAAAAAAGQAYAAAAAAAAMgAAAAAAAAAAAAAAAAAAAAAAAAAAAAAAAAAAAAAjPP8GAAAAAAAAWXgCcssjVffT4dtqAAAAAAABHC59RAAAAAAAAOqeldv8sic/TlqH00AAAAAAAA0ruZUcAAAAAAADqnpXb/LInP05ah9NAAAAAAAANK7mVHAAA+n/G+t7z836Ho/0vn/AC/7PyQAAOqeldv8sic/TlqH00AAA9xxn2jD17L0jOMAAA0ruZUcAACx8BTjRmKJPnNK8YRwn2DgAAOqeldv8sic/TlqH00AA2G023659PqmNgPRM40Y6c9Td9AANK7mVHAAAsfAU40ZiiT5zSvGEcJ9g4AADqnpXb/LInP05ah9NABthpvSHl1/s/GY9Czj33Gf2WfDYj934/OM4AGldzKjgAAWPgKcaMxRJ85pXjCOE+wcAAB1T0rt/lkTn6ctQ+mgHt+M2S4dv02dV99Jz9OX5eX6OG8fPp812xqrvoABpXcyo4AAFj4CnGjMUSfOaV4wjhPsHAAAdU9K7f5ZE5+nLUPpoBupz3oBz6+n5xGjvw8IAAAAGldzKjgAAWPgKcaMxRJ85pXjCOE+wcAAB1T0rt/lkTn6ctQ+mgFJOXXbDTfVzfSZ3XkAAAABpXcyo4AAFj4CnGjMUSfOaV4wjhPsHAAAdU9K7f5ZE5+nLUPpoBR3l123031r20l/25AAAAAaV3MqOAABY+ApxozFEnzmleMI4T7BwAAHVPSu3+WROfpy1D6aAbe6b0X5dfx2I1d+HrGQH9H+54wABpXcyo4AAFj4CnGjMUSfOaV4wjhPsHAAAdU9K7f5ZE5+nLUPpoB+1hZLh39oZ+O51nN15fLNsfRtc78c+n9ExO3LxAAaV3MqOAABY+ApxozFEnzmleMI4T7BwAAHVPSu3+WROfpy1D6aAD7vrtUjj1/VZAA/EYk524/KdsADSu5lRwAALHwFONGYok+c0rxhHCfYOAAA6p6V2/yyJz9OWofTQAD6LjO8vPpsFpt7Gz6xnGvu2ujHTn6BnAAGldzKjgAADOGMgAAB1T0rt/lkTn6ctQ+mgAAAAAAAGldzKjgAAAAAAAdU9K7f5ZE5+nLUPpoAAAAAAABpXcyo4AAAAAAAHVPSu3+WROfpy1D6aAAAAAAAAaV3MqOAAAAAAAB1T0rt/lkTn6ctQ+mgAAAAAAAH/8QALhAAAAMHAwMEAgIDAAAAAAAAAAUGAwQHCBgwNgECIBAXNTM3QFASExEWFTJw/9oACAEBAAEFAviTIZZ9LMhln0syGWfFhRColXxPTekxTekxTekxTekxTekxTekxTekxFeFJKgifnMhlnVGEbupFRTekxTekxTekxTekxTekxTekxTekxrLelNNLMt2Lc5kcW5zIZZ1hT7ic93+tlCRWOUCX1IqoVIqoQpXhivigRWXhigSipFVCpFVBdxWOV8X85kMs6p08eE2d1IqoVIqoI6OyiUanG/X8dlSKqFSKqGsyCq10uS24yJkcYtTIZZyhZ7hBr6V+W3GRMjjFqZDLOULPcINfSvy24yJkcYtTIZZyhZ7hBr6V+W3GRMjjFqZDLOULPcINfSvy24yJkcYtTIZZyhZ7hBr6V+W3GRMjjFqZDLOULPcINfSvy24yJkcYtTIZZyhZ7hBr6V+FEVCVAlFSCTEV4qkq+KLUyGWckadu6cVFSCTG+Y9J7tnzJkMs+lmQyz6WZDLP+B1IKwVIKwVIKwVIKwVIKwVIKwVIKwVIKwVIKwVIKwVIKwVIKwVIKwVIKwVIKwVIKwVIKzgu12ZJUy7xnw7xnw7xnw7xnw7xnw7xnw7xnw7xnw7xnw7xnw7xnw7xnw7xnw7xnw7xnw7xnw7xn3xYx+e+ljH575BEi1QpmHaaIoPUWqEywtRj89zdE8fP+n9FV38PSZULnpeltxkTI4xajH57ik4dmij0JEWnSHb1NkyRHm1VwufSrZcltxkTI4xajH57hDlDbTtpt26bdA+GDgXM/wC8JL8nMxLzHYG7di6sVYaF5we25bcZEyOMWox+e6kJQ2PTdzdHdwdAvYgf4DV8fXwwbh1e3pxbI+Kf7t0RVxqdtrktuMiZHGLUY/PdYNlujR8B+a7CMmeXhs9vHwZbcZEyOMWox+e6wfZabU2Iut9zJLfCltxkTI4xajH57rB1tpuT4is6bnlJ/CltxkTI4xajH57rB800djgGDkwMnE5KXojMuummu7VsxbOzW5LbjImRxi1GPz3Uuf25W/kxs6nhaFcjXBVuxyiFISb/ANbT8ipHKQ43pCHRendV2hWKkYN2DZ1bW5bcZEyOMWox+e4IdaNks+OT66GLtxMDFyKnRZKJmpjm3LbjImRxi1GPz3FPqk4TTcliyQv210Oyd/0/PZpo9npK4aHUWiJy2n6mN1I8fJjH576WMfnvpYx+e+ljH574P//EAD8RAAACBAoHBwQBAgcAAAAAAAECAAMEBQcQERIXITV0w9MGIDBAQVSRMTZRVXGjszJQc7ETYaEUFjRwosLS/9oACAEDAQE/AdxCOFK2WC7B8qz7GEcKVssF2D5Vn2MI4UrZYLsHyrN20O0PYdI2JqamppWqTqFswAVzJJJhTVzimrrSi1zc+09VWWlFrm59p6qstKLXNz7T1VZaUWubn2nqqy0otc3PtPVVlpRa5ufaeqrLSi1zc+09VWWmmOh7Do4wsrUytK1cdet/jEFkySSYY0oTSlrq1QjhStlguwfKs1HE71T0e7A71xzK1TUeaIlknAEgjVKAhw8Eotc3PtPVVlpRa5ufaeqrLSi1zc+09VWWlFrm59p6qstKLXNz7T1VZaUWubn2nqqy0otc3PtPVVloMFznk/17T1VZeygtsh43nCJsIUrId95wlmqEcKVssF2D5Vmpof3mc/5f+ptgPYOy0e0wbtHGZeysrMqXkXnniKyfLLNAtU0wVVJSk9/L2b3cxKUnv5eze7mJodpE06RsTU0tSgigyhbMAFc6SSaU0ozhGuuLTHSJp0cYmVpZVBF5l62YILJ0kk0xpQmiFdSUpPfy9m93MSlJ7+Xs3u5iaQ6YN2kbMpZWpmVKCKD/AMgCrnyyzRLIM4w1V6oRwpWywXYPlWajseCx1N7K8FJCrFjKacAGlmjVJXIIDx8UpSe/l7N7uYlKT38vZvdzEccIbzej2YHetYlCtW1HAoiX+ScAf0lOIf2iMMhTD4JSk9/L2b3cxKUnv5eze7mJSi9/L2b3czawW2S8bxhkihSsl3XjDPsAjhStlguwfKs19EO8rm/MH6GI/wBB/Qdwgtsl43jDJFClZLuvGGfYBHClbLBdg+VZr6Id5XN+YP0MR/oP6DuEFtkvG8YZIoUrJd14wz7AI4UrZYLsHyrNfRDvK5vzB+hiP9B/Qdwgtsl43jDJFClZLuvGGfYBHClbLBdg+VZr6Id5XN+YP0MR/oP6DuEFtkvG8YZIoUrJd14wz7AI4UrZYLsHyrNfRDvK5vzB+hiP9B/Qdwgtsl43jDJFClZLuvGGfYBHClbLBdg+VZr6Id5XN+YP0MR/oP6DuEFtkvG8YZIoUrJd14wz7AI4UrZYLsHyrNfRDvK5vzB+hiP9B/Qdw0O0wYNHGJqZmtmWrjr1s8BVzJJJhS1zjlrqSlFzcg1dFWammOmDBpGxMrMyMy1SdQtniKyZJJMMWqac1dewCOFK2WC7B8qzXcberdb2YHguIZYqZVgGECyThD+kogH90pRc3INXRVmoaFBzCUwf4BprDwVZu9BHClbLBdg+VZ9jCOFK2WC7B8qz7GEcKVssF2D5Vn+wlKT55Bm6LcxKUnzyDN0W5iUpPnkGbotzEpSfPIM3RbmJSk+eQZui3MSlJ88gzdFuYlKT55Bm6LcxKUnzyDN0W5iUpPnkGbotzEpSfPIM3RbmJSk+eQZui3MSlJ88gzdFuYlKT55Bm6LcxKUnzyDN0W5iUpPnkGbotzEpSfPIM3RbmJSk+eQZui3M1DGEEnik8Unik8Unik8Unik8Unik8Unik8Unik8Unik8UnjuQRn4fYwjPw3l3uJ7vVWdc7mE7UrVjNMJZKhklkrEOAp/k3Sfydb/AMP/AEjwcT3dSsi54sJ2VWsGaUTSVjJLJUI8A2ARn4bCQfBJo+CSD4beC2yXjeMMkUKVku68YZ9gEZ+GsBRFAKAakgDwQSydm1gtsl43jDJFClZLuvGGfYBGfhqlLLWPZqTg8dQe2raQW2S8bxhkihSsl3XjDPsAjPw1ACUZIzGkqDt1AP4oY0tXDawW2S8bxhkihSsl3XjDPsAjPw1CeMQjIEu5wW2S8bxhkihSsl3XjDPsAjPw1CdkR+zc4LbJeN4wyRQpWS7rxhn2ARn4ahOyI/ZucFtkvG8YZIoUrJd14wz7AIz8NQg1yRiEm5QW2S8bxhkihSsl3XjDPsAjPw1QGWIQlQSiEQFEUAsnqhiy+u1gtsl43jDJFClZLuvGGfYBGfhqlNJ6a41IIyjtILbJeN4wyRQpWS7rxhn2ARn4awCIIBw9ElCKUPFBOHqgiI7uEZ+H2MIz8PsYRn4fYwjPw3L/xAA8EQAAAgQLBgQHAAAHAAAAAAABAgADBAUGBxESFzVVdJHD0xAgITBAQTFRcbMTMjZQc6OxFRZwoaLC0v/aAAgBAgEBPwHpIpakeN6H2lX2aKWpHjeh9pV9milqR43ofaVdNDaGrwgy3sjIxsqleRoU/EEVk+UBnmLIE05eHBKWn3ZzLgt1UpafdnMuC3VSlp92cy4LdVKWn3ZzLgt1UpafdnMuC3VSlp92cy4LdVKWn3ZzLgt1UgTDV4Qmb2tkbGVSoIzqfiAKufKIzylkGcc3DjyIpakeN6H2lW5CB4rXQ5ng8lBCrFrIScUDSzRGUA4yCA9/NKWn3ZzLgt1UpafdnMuC3VSlp92cy4LdVKWn3ZzLgt1UpafdnMuC3VSlp92cy4LdVKWn3ZzLgt1UCNp9y1cy4LdXlRtVy7brmrORFLXLyuuar5EUtSPG9D7Srcht9Kvv8P8A2LyA8Q5UJYFMEJmpQ1tbUuUHZ1fwwBXMkEJwmlGcU3HilErltJq/VppRK5bSav1aaQ2g0yQYbmRlZF6xoI0KviCKybKAzzFkCaUvDhsgTBpkhO3NbK1r1jORnVfEAVc2URnlLIM4puHFKJXLaTV+rTSiVy2k1fq00g1Apggy1L2tkaly87Qr+GILJkgBOA0oTSl48ORFLUjxvQ+0q3Hs7lT3dzW7VxzK1TWWaJiyTgCUB4SgIdvJKJXLaTV+rTSiVy2k1fq00f8AFs6nS53g8lLc0LFrGrE4FN8OaIyh4yEAf99hQlMUPMUolctpNX6tNKJXLaTV+rTSiVy2k1fq0+bG3XDsu2afZFJXDzu2aTlxS1I8b0PtKt+Gn0s+/wAA/wBDYT5yeodBG3XDsu2afZFJXDzu2aTlxS1I8b0PtKt+Gn0s+/wD/Q2E+cnqHQRt1w7Ltmn2RSVw87tmk5cUtSPG9D7Srfhp9LPv8A/0NhPnJ6h0EbdcOy7Zp9kUlcPO7ZpOXFLUjxvQ+0q34afSz7/AP9DYT5yeodBG3XDsu2afZFJXDzu2aTlxS1I8b0PtKt+Gn0s+/wAA/wBDYT5yeodBG3XDsu2afZFJXDzu2aTlxS1I8b0PtKt+Gn0s+/wD/Q2E+cnqHQRt1w7Ltmn2RSVw87tmk5cUtSPG9D7Srfhp9LPv8A/0NhPnJ6h0EN4FPCEzcyNTG1KVBGdV8MQWCeURnmNKE0huHFKJX5aLJiu0kgTAp4QZbmtqbGpSvI0KvhgCsTygM8ppRnELw4cuKWpHjeh9pVvv93LXs5ng7lByq1rYrEhRNLNAZQ8ZAEcASiV+WiyYrtJCxTPwDFH/ABBl4D5rtLrYpakeN6H2lX2aKWpHjeh9pV9milqR43ofaVf6CUSuS0WrFVpJRK5LRasVWklErktFqxVaSUSuS0WrFVpJRK5LRasVWklErktFqxVaSUSuS0WrFVpJRK5LRasVWklErktFqxVaSUSuS0WrFVpJRK5LRasVWklErktFqxVaSUSuS0WrFVpJRK5LRasVWklErktFqxVaSUSuS0WrFVpJRK5LRasVWluFKApMBJgJMBJgJMBJgJMBJgJMBJgJMBJgJMBJgJMBJgJMDpSd/sxO/UvKEDmc61WpeTeRkWrSzigadxLLJLwAe4J/neCltqv+f/lHbCBzPhasUu1vI1rVRZxgLO4Flkl4gHceWTvyJQ80nB5pKHnz4264dl2zT7IpK4ed2zScsnfeE0nqgmEdwBEO6AeXx5sbdcOy7Zp9kUlcPO7ZpOWTvumNJwDx3Jo+W4HAOPMjbrh2XbNPsikrh53bNJyyd9wRkCXaUsvEfDcEnkhSycR8ebG3XDsu2afZFJXDzu2aTlk77h+wbACUZOjjbrh2XbNPsikrh53bNJyyd9w/jsJ49HG3XDsu2afZFJXDzu2aTlk77h/HYTx6ONuuHZds0+yKSuHnds0nLJ33D+G0Bl6KNuuHZds0+yKSuHnds0nLJ33RCTYAyIBgHZKAd0E0vohTSenNjbrh2XbNPsikrh53bNJyyd90xZfXf8UKEgcyNuuHZds0+yKSuHnds0nLJ33hABQSD24pIOyQfJAIPfggAAdUTv8AZid/sxO/2Ynfov/EAFEQAAAFAAMKCQcIBgkFAAAAAAECAwQFABESBhATITA1dZK11RQgMUBBdpG01CIyUFFSYXMVQkNicYGys0RygoOToSMkJTM0NlNjZFVwoqSx/9oACAEBAAY/AuaQnV4m0pD0NCdXibSkPQ0J1eJtKQ5tIyMnISjRVnJcCIRiZqCZk+CoL2j4dscbdpUenopnu6HXjd30z3dDrxu76Z7uh143d9M93Q68bu+me7odeN3fTPd0OvG7vpnu6HXjd30jpGNkJR2q8k+BHI+M1FMqfBXC9omAbEG3aSDp6chCdXibSkOJCwTtVZBvJOwbqqt7ALELgznrTwhDBarL0gNM93Q68bu+me7odeN3fTPd0OvG7vpnu6HXjd30z3dDrxu76Z7uh143d9M93Q68bu+gj8t3Q4gH58bu/JTunx2cyyEFp8NnPchCdXibSkOJcppMPyFsgb9Uf/mSeR0bHRjxJ484ac70HWEKpgEkLJcA4IFiykHbTMdz/ZI+OpmO5/skfHUkpCSZsmajKRBmQjLD2DE4MitaPh1TjatKD2Xo2QjWjJ4o9keBnI9w9gpODLL2iYBUg2rSYdtMx3P9kj46mY7n+yR8dRpHSUdGM0mb3hpDsgdYQymAVQsmw7g4WLKo9mQhOrxNpSHEjp1qkiu4jXHCEknFvAnNZMSpTBmAaqjdAhTMdz/ZI+OpmO5/skfHUhYN1EQqDeTelbKqtwfYYhTFMNaeEdiFryekBvGN7JTD2BXTMdz/AGSPjqZjuf7JHx1BD5Dufx4uSR8dlZ/TobPa3oHTo7PdZOE6vE2lIce5PSqf5al5T4Z/wjzCf06Gz2t6B06Oz3WThOrxNpSHHuT0qn+WpeU+Gf8ACPMJ/TobPa3oHTo7PdZOE6vE2lIce5PSqf5al5T4Z/wjzCf06Gz2t6B06Oz3WThOrxNpSHHuT0qn+WpeU+Gf8I8wn9Ohs9regdOjs91k4Tq8TaUhx7k9Kp/lqXlPhn/CPMJ/TobPa3oHTo7PdZOE6vE2lIce5PSqf5al5T4Z/wAI8wn9Ohs9regdOjs91k4Tq8TaUhx7k9Kp/lqXlPhn/CPMJKPk4+UdqvZEHiZ2JWgplT4MijZPwh0QbdpMeimZLov4cbvGkbHxkfKNFWUlwxQ74rQEzJ8GWRsk4O6ONu0oHRk4Tq8TaUhx4WcdpLLN416Vyqk3sCschSmCpPCHKFryukQpmS6L+HG7xoYvyLdD5RTB/dxvSFX/AFDnsJ1eJtKQ9DQnV4m0pD0NCdXibSkP+wmZLndSS3hTMlzupJbwpmS53Ukt4UzJc7qSW8KZkud1JLeFMyXO6klvCmZLndSS3hTMlzupJbwpmS53Ukt4UzJc7qSW8KZkud1JLeFMyXO6klvCmZLndSS3hTMlzupJbwpmS53Ukt4UzJc7qSW8KZkud1JLeHEaM2TRi4TcMgcmM6BcTgcV1krJcEsXyakw7aZsiNV54umbIjVeeLpmyI1Xni6ZsiNV54umbIjVeeLpmyI1Xni6ZsiNV54umbIjVeeLpmyI1Xni6ZsiNV54umbIjVeeLpmyI1Xni6ZsiNV54umbIjVeeLpmyI1Xni6ZsiNV54umbIjVeeL5rGaIL3x16GjNEF7465ys6goZ1JIN1sAsqgKNlNawVSwOEUDHYMUfvp/lSR1mviKIup2GdRrdwtgEVVxREqi1gylgMGoOOwUw/dk4zRBe+OsgBmcPJuCG5FU2TgUv41iz/OlfyC+1U69W3XQTOYSUSIGMVBYuBSD7VSks/wA8vP6dDZ7W9A6dHZ7rJxmiC98dcYjxwIxsUIgIOFCCK7ov/DRHzi/7hqi48VuoQoTgcemo4L+muwK5dib2gUOWpH92BA93EEJKNbLnEKuEATBOi/quUqj/AHV1e6ij6EOrJMSVnUbGABftyB0gBAqdph02QAweyIVmys/p0Nntb0Dp0dnusnGaIL3x1xQmZVOuKQUErduYBqkFyecJvW0Ibl9swWeQDBQClAClKAFKUoVAUAxAAAHIFV7Cv3rVkn0HdOEkCjV0FFUwWhpY+XmFfxDWdezV/OmEYPWj0gcpmrhJcA/WwRhsjeVcuFSIoIJmVWVUGyRNMgWjGMI8gVUevoxmVm0VP5IFASi4MFdt4onyJqKDjEAq9/l2hHJz+nQ2e1vQOnR2e6ycZogvfHXEYxSNYC7XApzh9EgWs7hb9lEpx99VVG7JqmCTZqiRBEgfNImWyH2m9Y9IjXeGKicGpLmIArLGADpxxThWWsg4lHQlGsCjiKAgYwDWAUO6fOVnbhTzll1DKHH3VmHEX1AGIOi8RyzcLNXCeMiyChklC/tEHkolHXTCQhzVERligBExNyAD5MuJP4hai+0UArPQ0PFq/wBkN1P6ZYg5xXIPnV9LQhg8j2hC37FWUn9Ohs9regdOjs91k4zRBe+OuJLSxy/4ZFFkgI+05MZVcQ+sBEEg+xW9Iyp6h4I3MdMo8h1zVJtkx9xlzph99FnTlQyrhwqdZZQ2Mx1FDCY5h+8eZT+nQ2e1vQOnR2e6ycZogvfHXEeKVeUrML4/qptGQFDtE/beSTLyOZZoif3lKg7cfjQJzOf06Gz2t6B06Oz3WTjNEF7464kgh85GXUP+ws0aAX/ySUvKKlCvgL9m7N+qOEZiP/t8zn9Ohs9regdOjs91k4zRBe+OuI+ijmqCSalVRx8rhiJzWAD1i3VXH9zedx7kK0HjdVur67KpBLaL6jhXWHqEKOox4WpZsoJbVQgVZMcaS6dfKmclQh9tQ4+IBSgImEQAAAKxER5AAOkaKIOElEF0jCRVFYhk1EzhylOQ4VlNlZ/TobPa3oHTo7PdZOM0QXvjriNJFqNldmumun6hEhqxIb1kMFYG9YGGjSTZmrRdJgazWAmRVDEqgpV9IRSsB+ysMV4uFHgsggUQaPyFtGKA48CuX6ZvX0V1lEayjjMBjA4jVnCAcjxiQ7psYvtCZMtaP7wpBpYsHt+zZG12UKVnFOgTN+kuUzNWpQ6Rwy4ABvsLaN7qEfPTEkZYMZVRL/VmZv8AiJm5VP8AcN5XsgTHWL5iUiM2gTyTYikfplDE3cD0KVeYfo803k1CVVu4SOiuicyaqShRKdNQg1GKYo8g15Sf06Gz2t6B06Oz3WTjNEF7464opr214h2YOFty4zpHqsg7bgP0gAAAYPnlCrlAogk8YrpuWy5baSyRrRTB6vqmAcQgOMBCoQr4yr6QcEbNUArOocewpChjUUEeQoViI8lFJBFom0RKQEEfJAHC6aYjZWdmL5ywhqlAC1jVWOTn9Ohs9regdOjs91k4zRBe+OuNhY1xUkcwCuzWrUaOKvbSr8k9XziiU3vqoROVIrEOeQxhAzlkYfqrJFtk/aJUHtDQDMpSPdV9CLtA5vsEgHrKP20tCYoB66wq7aCLyWjm1nlKq8QKf7k7dow+4AoZOJTWlnFQ2T2TNWZTfWUWLbPj9klQ+2FMPJubRSCOAapVptG9f+kjX531jVnHpNzqM0QXvjr0NGaIL3x16GjNEF7469DRmiC98dcy/8QAJhABAAIBAgcBAAMBAQAAAAAAAREhMQBBECAwQFBRYXGBkeHwcP/aAAgBAQABPyHsTw1w8NcO5uKdWexCq46BAqb6Fy5cuXLlwH6n2IFXHaIVTfKc9xuFzt5UTBwrx0Lly5cuXLhWnR+RPbpCk69w7/3fbpSFB+K3Hh2LKuOJYsUwrQ/a2VSECp4NFKaj7SyrUhVPEsWA4I8FuuDoGRccpz3Cdmlp99fcqs8SxYmoLS3zOGFeOClQoo4VBPyuJYtgBH9ZHbllk8Nc20Flk8Nc20Flk8Nc20Flk8Nc20Flk8Nc20Flk8Nc20Flk7y5toGMSmqbBSVIhLmuGJhiGap8lJ2CBua6B0rgLHVbObMhhVnhiBRoqwCgn1vujw1w8NcP/G7nfv379+/fv379+/fv37961gXZMe3sWVfg82bNmzZs2bNmzZs2bNmzHhoZ3kOCkyBFj+1BI4AEFJEAWP70AjoDpw879qc42enrz1/xX5oMewpN5MaIiiIjCNImRNnuFlk6MPMoMMBoy4kG0wUSK395GFFUm7kaW4fApZg3a0taPcV0mJICZDtoHbLLJ0IcQejjcejEHCnfB/iAbB6BAAUBwMKsyS5ZCCiW9fe0T/h/2mnMdrb9l+IYa4H6ZKp4eS6gv4dfElLYsYSrtmssnPDiNJ6YsJvHxyO7WNcKYkrvBKWhSrwNvlTnRAZW0FKsam6ZQojnCCgHB6eZHAwEZQSYcI6lXR11ThO1EEkVoV5soK8D1BidkO3Flk54cthvMHrDkD2m7wMjDzfVDSXFg3S7Fbk5ftb4YK7xZZOeHi+N9v4ucJTxBs2TH2T/AOO9WWTnhy9uJ6pngn5RkWlUGwhfQLt3qyyc8OGUyafUUL8HyNQoaREGKOSF2Ltpb5R+hQh9bACHF6Cnl0AWikH3TlZoMweCciD26yyc8ObS7ZjUC4VbJvo6iL+RHAbZzELoYhaFEuaSNaECaBfVsQzETn18DX0JG/YiszOkYoTukMSlvxG6Hw49N5BkvVhlDSHdl/jKREP6JqXrfeYFsmHtllk6EMtmqDBlALoQAtYF70Ahlbygw4IJzYnmfS4w0Iq0BdQ+yadR6HAAkL9s5ZZOjDfQWVgkxaABkIzCwOBg+Rbldjlu50RkNf48ugT1pkSd5f3MahvhUPGzfth+agFs2dJJjtEKVIOh6HAgcibhSxIEADqS6l9v96l6B4aGeGhnhoZ2sP8A/9oADAMBAAIAAwAAABAAAAAAAAAUCAAAAAAAAAAAAAAAAAUCAAAAAAAAAAAAAAAAAUCAAAAAAAAAACSSSQAAUCADSSSRgAAABgAADAAUCAAAAAAAAAAASACSAAUCABSIeRgAAAAAIYAAAUCAAAcMAAAAAAAIYAAAUCAAAcMAAAAAAAIYAAAUCAAAcMAAAAAAAIYAAAUCAAAcMAAAAAAAIYAAAUCAAAcMAAAAAAAIYAAAUCAAAcMAAAAAAAIYAAAUCAAAcMAAAAAAATgAAAUCAAAPwAAAAAAAAAAAAUCAAAAAAAAAAAAAAAAAUCAAAAAAAAAAAAAAAAAUCAAAAAAAACSSSSSSSSAASSSSSSSSQAAAAAAAAAAAAAAAAAAAAAAAAAAAAAAAAAAAAAAAAAAAAAAUASSSSSSSSQAAAAAAAAUBgAAAAAAAAAAAAAAAAUBgAAAAAAAAAAAVkAAAUBgAACMAAAAAAAIYAAAUBgAD8ACAAAAAAIYAAAUBgACDtjwAAAAAIYAAAUBgAcDh4AAAAAAIYAAAUBgDgQAAAAAAAAIYAAAUBgCAAAAAAAAAAIYAAAUBgCDgAAAAAAAAIYAAAUBgCh8ASAAAAAAIYAAAUBgDsPj/AIAAAAACGAAAFAYAE4AA/AAAAACGAAAFAYAAA8kAAAAAAEUAAAFAYAAAAAAAAAAAAAAAAFAYAAAAAAAAAAAAAAAAFAYAAAAAAAAAAAAAAAAFAYAAAAAAAA//xAApEQEAAAUCBgMBAQADAAAAAAABABEhMXEQQCAwUWGh0UFQ8fCxcJHB/9oACAEDAQE/ENjYY+mM2GPpjNhjcmZtLMBVCZVMohIKT5BkyZMmTJmbDyCFyFUSqklpPhsMcZkEw/nwFUdyO3IMmTJkyZMjSUx2RB8NwlhjjM+P5B4z/nKlkYxIoUjoLUWa1lH40H40FyJaC6DqZRCQU0sRLQXQdRKqSWkfjQfjQSzMQmWIdDaAzCsuGwxxmb1Q/iaSiJKwY/Gg/GgAnd0wFnUFPlHbRCSaV/6Jx+NB+NAuJe7bc22sMcwys/tdHdbbWGOYZWf2ujuttrDHMMrP7XR3W21hjmGVn9ro7rbawxzDKz+10d1ttYY5hlZ/a6O622sMcwys/tdHYSjmoQoE0qbQSSVnp2lHNQFQJpUWoEhrPkWGOUZmUBPAESuK/IO+nYUisZiW6WGPpjNhj6YzYY/4YMmTJkyZMmTJkyZMmTJkyZGYPXVEAKx2zz7jtnn3HbPPuO2efcds8+47Z59x2zz7jtnn3HbPPuO2efcds8+47Z59x2zz7jtnn3HbPPuO2efcds8+9lYY1vw+jsMa34bme5eRJKZPTkNCUmP2oZ7l5MmpE9OY1JSORYY1vw5Alkx3UJXW522sMa34cVcsRYCvX54G8DD1VH+bfbawxrfhw/0E9VC7KOygRsz0UCbQIYpEjbbbWGNb8OCQdUAABY06o/xCqzWboKMxkxOpf1i0WedvttYY1vw4DV6NJx0Qqs2q7zbawxrfhwGt6unnd7ttYY1vw4Lx30E8Xe7bWGNb8OCUur/zRJiPzCJH44USiSdvttYY1vw4BkifEABPnQz0SLkaWIg6msAMyghEZNE2221hjW/Dhma3QIkxmcSAqyCK9KW222sMa34cStGEXqgSyOiFUQC1UITXb2GNb8Po7DGt+H0dhjW/D6Owxrfhsv/EACsRAQAABAUEAwACAgMAAAAAAAEAESGhEDAxQGEgUXHRQfDxUIFgwYCRsf/aAAgBAgEBPxD/ADb169S+DBelRKC1FmtZUyPXr169evUvgwTpUShtAZhWVMz1VsvtQSmpLQPOR69evXr16SBqu+XXXq6ZFfH/ALlTfKB+QZqmUQkFJx+xH+xHwnQiAJQWos1rLDhOhEAShtAZhWUfsR/sRzfKB+QZqiVUktJ5nruk36AriY1RxH7Ef7Ea+0FlASpyvwHnAGaBH/bKP2I/2IwEdDnN7jg2HaPpv913NhccGw7R9N/uu5sLjg2HaPpv913NhccGw7R9N/uu5sLjg2HaPpv913NhccGw7R9N/uu5sLjg2HaPpv8AddzYSPmVdAC0EqjMaSrgFnfMq6AFoZRWaUlXZemmEGEJNyqnyPGAVEuE+Jn/AMAfr169evXr169evXr169evXr0CqtI523qOdt6jnbeo523qOdt6jnbeo523qOdt6jnbeo523qOdt6jnbeo523qOdt6jnbeo523qOdt62uny/htPluZcdFpmJUtKYVRmR+bHLjosMhOlpSCis3L0+WQhqD+44UDaDPuODYct0+XUdBWGoNO3x0aJJBUUNs244Nhy3T5dPMFsQXQnHKhE1JYArIqsFAU3MuODYct0+XRMOyFVV1cPqE4ACQSMEEkkyJVa+I5gtm3HBsOW6fLodO5XCQd0ABIoGyuODYct0+XRpeP9uGvwbO44Nhy3T5dGl494KUvcdnccGw5bp8ugzD2/3gKImpAAT56RGozM244Nhy3T5dCTEfmESPxg77jGhMvODroPQUgjk1Ua6ZlxwbDluny6ZGmj7KERRJJ1AqQTYo05uZccGw5bp8urVSAdi8IaiYCaJ/qEdi8CyD3moOpOJHYiQaEsvT5fw2ny/htPl/DafLZf/8QAKBABAAECBQQDAQADAQAAAAAAAREAMSFRcZGxECBAUDBBYYFg0eHx/9oACAEBAAE/EPBsNDj02uw0OPTa7DQ48nXOAaRJxGK87su+XLly5cuWnZlElBGP8rsOyw0OO/WjsrJOh6O2K6E75cuXLly5bZAUYVcDFknjsL1hoceTrIYEIdVYNwP4vbB0+fGQeP6IKf2fwWiU9/6QCfyfwTp8+Cc4VgXU/r98PZYaHHfrLVrYLDXm7wLJHp8+Lappc2WAGEKbOhnyREDkGZImOvz46QFkmBkk3Q+OBv2Ghx6bW+bgb9hocem1vm4G/YaHHptb5uBv2Ghx6bW+bgb9hocem1vm4G/YaHHptb5uBv2Ghx5mt83eksJF4IA870KeBS5khcABOV6XfYaHHxa0ge9IeioCMUjDo8mv0YjkGwRMD5Vhocem12Ghx6bXYaHHi64MjYqDI2KgyNioMjYqDI2KgyNioMjYqDI2KgyNioMjYqDI2KgyNioMjYqDI2KgyNioMjYqDI2OxBuDrUGRsVBkbFQZGxUGRsVBkbFQZGxUGRsVBkbFQZGxUGRsVBkbFQZGxUGRsVBkbFQZGxUGRsVBkbH+PRIkSJEiRIkSJEiRIkSJEMQcw6tFHgAUFwx9LEB6ISJEiRIkSJEiRIkSJEiRNhocemq2Ghx5lU/ZDaFJb6YDjMnRG/sDoCkN9uBxmD4LDQ4+OqY9hDfEsEEcFM/VZjWP+Aii+5hJkqBhizM+6RM4ZQIgSCIjaPIA37DQ4+GqE+gpbOBAmEhqwI3ob0CbWAvcTIr1F/gyaMoymQgiyJLFjjJ9hS3C1sRFEhMEbjk+MBv2Ghx8FVY8ecpGSDGlxNPDy4yqMCgAAADpDn2Z4IBzTEAKhQywXHhJYkU09BjMVjI6e8gK5BGEUIInRyUk9loEpfyAVCiTcxk6F6BwPG64DfsNDjvqooMparITAEEok0KLFsDVycQ85VGjisKbmIAQayi3fRNxcTCMAxQChbhXcIl/A6mQklAowXVEWHMTRVIT8w3KyG6sU7xyYG/YaHHfVKObgBUpl8sPgfR4c70NyFW1AgpFfrpwe6g+AAQAAeWBv2Ghx31SGD75sV+LmrogEwEB0liAzL9eaBv2Ghx31cd6X0yUyT+Vj8ehGYyqWLJXZZRAnzQN+w0OO+qVoyrFELPwuBGF0OaNhDW1IAsi4Q0WJvsqexKHKh9g4CnZiM/QoAqgBWrMJENoJgMfZ44G/YaHHfVOirghtkgzsJcFTN00VPoRnwIOg5jfHR0B4/q8UJrw/KwmY8DlMGQuNwyTCwqWHgSIuRRbInZpDrYkgvQKSDTEJxPSkKBa6Yyg6YpWBR/OygAZX/k8ByJ9SYQ+MBv2Ghx8FWBIXixPk1b5KLh3TRFFIGA1sp2vvquFIRgofQ8ikEHhaq4pik2XjQG/YaHHw1UlwHaQynABkZqSJNAgAIA1QcgikOFkpr9iB9tWCGjAakfAukkf2s+RAcPzoV/SonCDiwkBWMWkoEs3ADkgkThNfK3gFlNFOK/9x/ulLq6q8/BYaHHpqthocemq2Ghx6arYaHHi1f/Z;fontStyle=1" parent="1" vertex="1">
          <mxGeometry x="724.42" y="1036.43" width="208.66" height="208.66" as="geometry" />
        </mxCell>
        <mxCell id="vXAJsGSplwALr-w8OxCf-19" value="" style="endArrow=none;html=1;rounded=0;strokeWidth=5;fontStyle=1" parent="1" edge="1">
          <mxGeometry width="50" height="50" relative="1" as="geometry">
            <mxPoint x="129.928" y="129.91800000000006" as="sourcePoint" />
            <mxPoint x="995.93" y="130.92000000000002" as="targetPoint" />
          </mxGeometry>
        </mxCell>
        <mxCell id="vXAJsGSplwALr-w8OxCf-20" value="" style="endArrow=none;html=1;rounded=0;strokeWidth=5;fontStyle=1" parent="1" edge="1">
          <mxGeometry width="50" height="50" relative="1" as="geometry">
            <mxPoint x="129.925" y="268.71500000000003" as="sourcePoint" />
            <mxPoint x="318.86" y="268.76" as="targetPoint" />
          </mxGeometry>
        </mxCell>
        <mxCell id="vXAJsGSplwALr-w8OxCf-22" value="" style="endArrow=none;html=1;rounded=0;strokeWidth=5;fontStyle=1" parent="1" edge="1">
          <mxGeometry width="50" height="50" relative="1" as="geometry">
            <mxPoint x="318.90900000000005" y="446.10900000000004" as="sourcePoint" />
            <mxPoint x="460.92999999999995" y="445.91999999999996" as="targetPoint" />
          </mxGeometry>
        </mxCell>
        <mxCell id="vXAJsGSplwALr-w8OxCf-23" value="" style="endArrow=none;html=1;rounded=0;strokeWidth=5;fontStyle=1" parent="1" edge="1">
          <mxGeometry width="50" height="50" relative="1" as="geometry">
            <mxPoint x="318.90999999999997" y="268.7099999999999" as="sourcePoint" />
            <mxPoint x="318.92999999999995" y="445.91999999999996" as="targetPoint" />
          </mxGeometry>
        </mxCell>
        <mxCell id="vXAJsGSplwALr-w8OxCf-26" value="&lt;font style=&quot;font-size: 50px;&quot;&gt;Robot Base&lt;/font&gt;" style="text;strokeColor=none;align=center;fillColor=none;html=1;verticalAlign=middle;whiteSpace=wrap;rounded=0;fontStyle=1" parent="1" vertex="1">
          <mxGeometry x="216.53999999999996" y="156.51" width="346.46" height="86.61" as="geometry" />
        </mxCell>
        <mxCell id="vXAJsGSplwALr-w8OxCf-33" value="" style="endArrow=none;html=1;rounded=0;strokeWidth=5;fontStyle=1" parent="1" edge="1">
          <mxGeometry width="50" height="50" relative="1" as="geometry">
            <mxPoint x="649.8000000000001" y="130.92000000000002" as="sourcePoint" />
            <mxPoint x="649.62" y="268.92999999999995" as="targetPoint" />
          </mxGeometry>
        </mxCell>
        <mxCell id="vXAJsGSplwALr-w8OxCf-34" value="" style="endArrow=none;html=1;rounded=0;strokeWidth=5;fontStyle=1" parent="1" edge="1">
          <mxGeometry width="50" height="50" relative="1" as="geometry">
            <mxPoint x="460.672" y="268.7120000000001" as="sourcePoint" />
            <mxPoint x="649.607" y="268.75699999999995" as="targetPoint" />
          </mxGeometry>
        </mxCell>
        <mxCell id="vXAJsGSplwALr-w8OxCf-35" value="" style="endArrow=none;html=1;rounded=0;strokeWidth=5;fontStyle=1" parent="1" edge="1">
          <mxGeometry width="50" height="50" relative="1" as="geometry">
            <mxPoint x="460.63699999999994" y="268.707" as="sourcePoint" />
            <mxPoint x="460.6569999999999" y="445.91700000000003" as="targetPoint" />
          </mxGeometry>
        </mxCell>
        <mxCell id="vXAJsGSplwALr-w8OxCf-38" value="" style="endArrow=none;html=1;rounded=0;strokeWidth=5;fontStyle=1" parent="1" edge="1">
          <mxGeometry width="50" height="50" relative="1" as="geometry">
            <mxPoint x="649.6139999999999" y="788.404" as="sourcePoint" />
            <mxPoint x="995.93" y="788.92" as="targetPoint" />
          </mxGeometry>
        </mxCell>
        <mxCell id="vXAJsGSplwALr-w8OxCf-39" value="" style="endArrow=none;html=1;rounded=0;strokeWidth=5;fontStyle=1" parent="1" edge="1">
          <mxGeometry width="50" height="50" relative="1" as="geometry">
            <mxPoint x="649.6109999999999" y="268.711" as="sourcePoint" />
            <mxPoint x="995.9269999999998" y="269.227" as="targetPoint" />
          </mxGeometry>
        </mxCell>
        <mxCell id="vXAJsGSplwALr-w8OxCf-40" value="" style="endArrow=none;html=1;rounded=0;strokeWidth=5;fontStyle=1" parent="1" edge="1">
          <mxGeometry width="50" height="50" relative="1" as="geometry">
            <mxPoint x="649.6079999999998" y="441.938" as="sourcePoint" />
            <mxPoint x="995.9239999999999" y="442.45399999999995" as="targetPoint" />
          </mxGeometry>
        </mxCell>
        <mxCell id="vXAJsGSplwALr-w8OxCf-41" value="" style="endArrow=none;html=1;rounded=0;strokeWidth=5;fontStyle=1" parent="1" edge="1">
          <mxGeometry width="50" height="50" relative="1" as="geometry">
            <mxPoint x="649.6149999999999" y="615.1750000000001" as="sourcePoint" />
            <mxPoint x="995.9309999999999" y="615.691" as="targetPoint" />
          </mxGeometry>
        </mxCell>
        <mxCell id="vXAJsGSplwALr-w8OxCf-42" value="" style="endArrow=none;html=1;rounded=0;strokeWidth=5;fontStyle=1" parent="1" edge="1">
          <mxGeometry width="50" height="50" relative="1" as="geometry">
            <mxPoint x="822.348" y="787.708" as="sourcePoint" />
            <mxPoint x="822.348" y="268.7080000000002" as="targetPoint" />
          </mxGeometry>
        </mxCell>
        <mxCell id="TNqBD8j6_3aI6aTodrq5-1" value="&lt;font style=&quot;&quot; size=&quot;1&quot;&gt;&lt;span style=&quot;font-size: 30px;&quot;&gt;0&lt;/span&gt;&lt;/font&gt;" style="text;html=1;align=center;verticalAlign=middle;whiteSpace=wrap;rounded=0;fontStyle=1" vertex="1" parent="1">
          <mxGeometry x="133.85999999999999" y="791.3400000000001" width="35.43" height="35.43" as="geometry" />
        </mxCell>
        <mxCell id="TNqBD8j6_3aI6aTodrq5-2" value="&lt;font style=&quot;&quot; size=&quot;1&quot;&gt;&lt;span style=&quot;font-size: 30px;&quot;&gt;1&lt;/span&gt;&lt;/font&gt;" style="text;html=1;align=center;verticalAlign=middle;whiteSpace=wrap;rounded=0;fontStyle=1" vertex="1" parent="1">
          <mxGeometry x="307.087" y="791.3370000000001" width="35.43" height="35.43" as="geometry" />
        </mxCell>
        <mxCell id="TNqBD8j6_3aI6aTodrq5-3" value="&lt;font style=&quot;&quot; size=&quot;1&quot;&gt;&lt;span style=&quot;font-size: 30px;&quot;&gt;2&lt;/span&gt;&lt;/font&gt;" style="text;html=1;align=center;verticalAlign=middle;whiteSpace=wrap;rounded=0;fontStyle=1" vertex="1" parent="1">
          <mxGeometry x="480.31399999999996" y="791.3340000000001" width="35.43" height="35.43" as="geometry" />
        </mxCell>
        <mxCell id="TNqBD8j6_3aI6aTodrq5-4" value="&lt;font style=&quot;&quot; size=&quot;1&quot;&gt;&lt;span style=&quot;font-size: 30px;&quot;&gt;3&lt;/span&gt;&lt;/font&gt;" style="text;html=1;align=center;verticalAlign=middle;whiteSpace=wrap;rounded=0;fontStyle=1" vertex="1" parent="1">
          <mxGeometry x="133.861" y="964.561" width="35.43" height="35.43" as="geometry" />
        </mxCell>
        <mxCell id="TNqBD8j6_3aI6aTodrq5-5" value="&lt;font style=&quot;&quot; size=&quot;1&quot;&gt;&lt;span style=&quot;font-size: 30px;&quot;&gt;4&lt;/span&gt;&lt;/font&gt;" style="text;html=1;align=center;verticalAlign=middle;whiteSpace=wrap;rounded=0;fontStyle=1" vertex="1" parent="1">
          <mxGeometry x="307.08799999999997" y="964.558" width="35.43" height="35.43" as="geometry" />
        </mxCell>
        <mxCell id="TNqBD8j6_3aI6aTodrq5-6" value="&lt;font style=&quot;&quot; size=&quot;1&quot;&gt;&lt;span style=&quot;font-size: 30px;&quot;&gt;5&lt;/span&gt;&lt;/font&gt;" style="text;html=1;align=center;verticalAlign=middle;whiteSpace=wrap;rounded=0;fontStyle=1" vertex="1" parent="1">
          <mxGeometry x="480.31499999999994" y="964.565" width="35.43" height="35.43" as="geometry" />
        </mxCell>
        <mxCell id="TNqBD8j6_3aI6aTodrq5-7" value="&lt;font style=&quot;&quot; size=&quot;1&quot;&gt;&lt;span style=&quot;font-size: 30px;&quot;&gt;6&lt;/span&gt;&lt;/font&gt;" style="text;html=1;align=center;verticalAlign=middle;whiteSpace=wrap;rounded=0;fontStyle=1" vertex="1" parent="1">
          <mxGeometry x="133.862" y="1137.792" width="35.43" height="35.43" as="geometry" />
        </mxCell>
        <mxCell id="TNqBD8j6_3aI6aTodrq5-8" value="&lt;font style=&quot;&quot; size=&quot;1&quot;&gt;&lt;span style=&quot;font-size: 30px;&quot;&gt;7&lt;/span&gt;&lt;/font&gt;&lt;span style=&quot;color: rgba(0, 0, 0, 0); font-family: monospace; font-size: 0px; text-align: start; text-wrap: nowrap;&quot;&gt;%3CmxGraphModel%3E%3Croot%3E%3CmxCell%20id%3D%220%22%2F%3E%3CmxCell%20id%3D%221%22%20parent%3D%220%22%2F%3E%3CmxCell%20id%3D%222%22%20value%3D%22%26lt%3Bfont%20size%3D%26quot%3B1%26quot%3B%20style%3D%26quot%3B%26quot%3B%26gt%3B%26lt%3Bb%20style%3D%26quot%3Bfont-size%3A%2030px%3B%26quot%3B%26gt%3B4%26lt%3B%2Fb%26gt%3B%26lt%3B%2Ffont%26gt%3B%22%20style%3D%22text%3Bhtml%3D1%3Balign%3Dcenter%3BverticalAlign%3Dmiddle%3BwhiteSpace%3Dwrap%3Brounded%3D0%3B%22%20vertex%3D%221%22%20parent%3D%221%22%3E%3CmxGeometry%20x%3D%22307.08799999999997%22%20y%3D%22964.558%22%20width%3D%2235.43%22%20height%3D%2235.43%22%20as%3D%22geometry%22%2F%3E%3C%2FmxCell%3E%3C%2Froot%3E%3C%2FmxGraphModel%3E&lt;/span&gt;" style="text;html=1;align=center;verticalAlign=middle;whiteSpace=wrap;rounded=0;fontStyle=1" vertex="1" parent="1">
          <mxGeometry x="307.08899999999994" y="1137.789" width="35.43" height="35.43" as="geometry" />
        </mxCell>
        <mxCell id="TNqBD8j6_3aI6aTodrq5-9" value="&lt;font style=&quot;&quot; size=&quot;1&quot;&gt;&lt;span style=&quot;font-size: 30px;&quot;&gt;8&lt;/span&gt;&lt;/font&gt;" style="text;html=1;align=center;verticalAlign=middle;whiteSpace=wrap;rounded=0;fontStyle=1" vertex="1" parent="1">
          <mxGeometry x="480.3159999999999" y="1137.796" width="35.43" height="35.43" as="geometry" />
        </mxCell>
        <mxCell id="TNqBD8j6_3aI6aTodrq5-10" value="&lt;font style=&quot;&quot; size=&quot;1&quot;&gt;&lt;span style=&quot;font-size: 30px;&quot;&gt;A&lt;/span&gt;&lt;/font&gt;" style="text;html=1;align=center;verticalAlign=middle;whiteSpace=wrap;rounded=0;fontStyle=1" vertex="1" parent="1">
          <mxGeometry x="653.5429999999999" y="271.6529999999999" width="35.43" height="35.43" as="geometry" />
        </mxCell>
        <mxCell id="TNqBD8j6_3aI6aTodrq5-11" value="&lt;font style=&quot;&quot; size=&quot;1&quot;&gt;&lt;span style=&quot;font-size: 30px;&quot;&gt;B&lt;/span&gt;&lt;/font&gt;" style="text;html=1;align=center;verticalAlign=middle;whiteSpace=wrap;rounded=0;fontStyle=1" vertex="1" parent="1">
          <mxGeometry x="826.77" y="271.65" width="35.43" height="35.43" as="geometry" />
        </mxCell>
        <mxCell id="TNqBD8j6_3aI6aTodrq5-12" value="&lt;font style=&quot;&quot; size=&quot;1&quot;&gt;&lt;span style=&quot;font-size: 30px;&quot;&gt;C&lt;/span&gt;&lt;/font&gt;" style="text;html=1;align=center;verticalAlign=middle;whiteSpace=wrap;rounded=0;fontStyle=1" vertex="1" parent="1">
          <mxGeometry x="653.5469999999999" y="445.87699999999995" width="35.43" height="35.43" as="geometry" />
        </mxCell>
        <mxCell id="TNqBD8j6_3aI6aTodrq5-13" value="&lt;font style=&quot;&quot; size=&quot;1&quot;&gt;&lt;span style=&quot;font-size: 30px;&quot;&gt;D&lt;/span&gt;&lt;/font&gt;" style="text;html=1;align=center;verticalAlign=middle;whiteSpace=wrap;rounded=0;fontStyle=1" vertex="1" parent="1">
          <mxGeometry x="826.7739999999999" y="445.874" width="35.43" height="35.43" as="geometry" />
        </mxCell>
        <mxCell id="TNqBD8j6_3aI6aTodrq5-14" value="&lt;font style=&quot;&quot; size=&quot;1&quot;&gt;&lt;span style=&quot;font-size: 30px;&quot;&gt;E&lt;/span&gt;&lt;/font&gt;" style="text;html=1;align=center;verticalAlign=middle;whiteSpace=wrap;rounded=0;fontStyle=1" vertex="1" parent="1">
          <mxGeometry x="653.5509999999999" y="618.111" width="35.43" height="35.43" as="geometry" />
        </mxCell>
        <mxCell id="TNqBD8j6_3aI6aTodrq5-15" value="&lt;font style=&quot;&quot; size=&quot;1&quot;&gt;&lt;span style=&quot;font-size: 30px;&quot;&gt;F&lt;/span&gt;&lt;/font&gt;" style="text;html=1;align=center;verticalAlign=middle;whiteSpace=wrap;rounded=0;fontStyle=1" vertex="1" parent="1">
          <mxGeometry x="826.778" y="618.108" width="35.43" height="35.43" as="geometry" />
        </mxCell>
      </root>
    </mxGraphModel>
  </diagram>
</mxfile>
